# xmcd CD database file
#
# Track frame offsets:
#	182
#	5185
#	34855
#	52250
#	75137
#	89685
#	108627
#	124052
#	145420
#	160220
#
# Disc length: 2369 seconds
#
# Revision: 2
# Processed by: cddbd v1.5PL3 Copyright (c) Steve Scherf et al.
# Submitted via: CDex 1.51
#
DISCID=88093f0a
DTITLE=SAXON - Crusader
DYEAR=1984
DGENRE=Hard Rock
TTITLE0=The Crusader Prelude
TTITLE1=Crusader
TTITLE2=A Little Bit Of What You Fancy
TTITLE3=Sailing To America
TTITLE4=Set Me Free
TTITLE5=Just Let Me Rock
TTITLE6=Bad Boys (Like To Rock 'N' Roll)
TTITLE7=Do It All For You
TTITLE8=Rock City
TTITLE9=Run For Your Lives
EXTD=YEAR: 1984
EXTT0=
EXTT1=
EXTT2=
EXTT3=
EXTT4=
EXTT5=
EXTT6=
EXTT7=
EXTT8=
EXTT9=
PLAYORDER=
